<svg width="400" height="60" viewBox="0 0 408 62" fill="none" xmlns="http://www.w3.org/2000/svg">
<path d="M0.5 31C0.5 14.1553 14.1553 0.5 31 0.5H377C393.845 0.5 407.5 14.1553 407.5 31C407.5 47.8447 393.845 61.5 377 61.5H31C14.1553 61.5 0.5 47.8447 0.5 31Z" fill="#DFB3A5" fill-opacity="0.32"/>
<path d="M0.5 31C0.5 14.1553 14.1553 0.5 31 0.5H377C393.845 0.5 407.5 14.1553 407.5 31C407.5 47.8447 393.845 61.5 377 61.5H31C14.1553 61.5 0.5 47.8447 0.5 31Z" stroke="#B46E57"/>
<path d="M0.5 31C0.5 14.1553 14.1553 0.5 31 0.5H377C393.845 0.5 407.5 14.1553 407.5 31C407.5 47.8447 393.845 61.5 377 61.5H31C14.1553 61.5 0.5 47.8447 0.5 31Z" stroke="black" stroke-opacity="0.2"/>
<path d="M36.5227 44V14.9091H46.3523C48.6345 14.9091 50.5 15.321 51.9489 16.1449C53.4072 16.9593 54.4867 18.0625 55.1875 19.4545C55.8883 20.8466 56.2386 22.3996 56.2386 24.1136C56.2386 25.8277 55.8883 27.3854 55.1875 28.7869C54.4962 30.1884 53.4261 31.3059 51.9773 32.1392C50.5284 32.9631 48.6723 33.375 46.4091 33.375H39.3636V30.25H46.2955C47.858 30.25 49.1127 29.9801 50.0597 29.4403C51.0066 28.9006 51.6932 28.1714 52.1193 27.2528C52.5549 26.3248 52.7727 25.2784 52.7727 24.1136C52.7727 22.9489 52.5549 21.9072 52.1193 20.9886C51.6932 20.0701 51.0019 19.3504 50.0455 18.8295C49.089 18.2992 47.8201 18.0341 46.2386 18.0341H40.0455V44H36.5227ZM70.3722 44.4545C68.2699 44.4545 66.4564 43.9905 64.9318 43.0625C63.4167 42.125 62.2472 40.8182 61.4233 39.142C60.6089 37.4564 60.2017 35.4962 60.2017 33.2614C60.2017 31.0265 60.6089 29.0568 61.4233 27.3523C62.2472 25.6383 63.393 24.303 64.8608 23.3466C66.3381 22.3807 68.0616 21.8977 70.0312 21.8977C71.1676 21.8977 72.2898 22.0871 73.3977 22.4659C74.5057 22.8447 75.5142 23.4602 76.4233 24.3125C77.3324 25.1553 78.0568 26.2727 78.5966 27.6648C79.1364 29.0568 79.4062 30.7708 79.4062 32.8068V34.2273H62.5881V31.3295H75.9972C75.9972 30.0985 75.7509 29 75.2585 28.0341C74.7756 27.0682 74.0843 26.3059 73.1847 25.7472C72.2945 25.1884 71.2434 24.9091 70.0312 24.9091C68.696 24.9091 67.5407 25.2405 66.5653 25.9034C65.5994 26.5568 64.8561 27.4091 64.3352 28.4602C63.8144 29.5114 63.554 30.6383 63.554 31.8409V33.7727C63.554 35.4205 63.8381 36.8172 64.4062 37.9631C64.9839 39.0994 65.7841 39.9659 66.8068 40.5625C67.8295 41.1496 69.018 41.4432 70.3722 41.4432C71.2528 41.4432 72.0483 41.3201 72.7585 41.0739C73.4782 40.8182 74.0985 40.4394 74.6193 39.9375C75.1402 39.4261 75.5426 38.7917 75.8267 38.0341L79.0653 38.9432C78.7244 40.0417 78.1515 41.0076 77.3466 41.8409C76.5417 42.6648 75.5473 43.3087 74.3636 43.7727C73.1799 44.2273 71.8494 44.4545 70.3722 44.4545ZM99.9602 27.0682L96.9489 27.9205C96.7595 27.4186 96.4801 26.9309 96.1108 26.4574C95.7509 25.9744 95.2585 25.5767 94.6335 25.2642C94.0085 24.9517 93.2083 24.7955 92.233 24.7955C90.8977 24.7955 89.785 25.1032 88.8949 25.7188C88.0142 26.3248 87.5739 27.0966 87.5739 28.0341C87.5739 28.8674 87.8769 29.5256 88.483 30.0085C89.089 30.4915 90.036 30.8939 91.3239 31.2159L94.5625 32.0114C96.5133 32.4848 97.9669 33.2093 98.9233 34.1847C99.8797 35.1506 100.358 36.3958 100.358 37.9205C100.358 39.1705 99.9981 40.2879 99.2784 41.2727C98.5682 42.2576 97.5739 43.0341 96.2955 43.6023C95.017 44.1705 93.5303 44.4545 91.8352 44.4545C89.6098 44.4545 87.768 43.9716 86.3097 43.0057C84.8513 42.0398 83.928 40.6288 83.5398 38.7727L86.7216 37.9773C87.0246 39.1515 87.5975 40.0322 88.4403 40.6193C89.2926 41.2064 90.4053 41.5 91.7784 41.5C93.3409 41.5 94.5814 41.1686 95.5 40.5057C96.428 39.8333 96.892 39.0284 96.892 38.0909C96.892 37.3333 96.6269 36.6989 96.0966 36.1875C95.5663 35.6667 94.7519 35.2784 93.6534 35.0227L90.017 34.1705C88.0189 33.697 86.5511 32.9631 85.6136 31.9688C84.6856 30.965 84.2216 29.7102 84.2216 28.2045C84.2216 26.9735 84.5672 25.8845 85.2585 24.9375C85.9593 23.9905 86.911 23.2472 88.1136 22.7074C89.3258 22.1676 90.6989 21.8977 92.233 21.8977C94.392 21.8977 96.0871 22.3712 97.3182 23.3182C98.5587 24.2652 99.4394 25.5152 99.9602 27.0682ZM120.29 52.1818V40.6477H120.006C119.76 41.0455 119.41 41.5473 118.955 42.1534C118.501 42.75 117.852 43.285 117.009 43.7585C116.166 44.2225 115.044 44.4545 113.643 44.4545C111.825 44.4545 110.219 43.9953 108.827 43.0767C107.435 42.1487 106.346 40.8419 105.56 39.1562C104.774 37.4612 104.381 35.4583 104.381 33.1477C104.381 30.8561 104.774 28.8674 105.56 27.1818C106.346 25.4962 107.44 24.1941 108.842 23.2756C110.243 22.357 111.862 21.8977 113.7 21.8977C115.12 21.8977 116.242 22.1345 117.066 22.608C117.899 23.072 118.534 23.6023 118.969 24.1989C119.415 24.786 119.76 25.2689 120.006 25.6477H120.404V22.1818H123.643V52.1818H120.29ZM114.097 41.4432C115.442 41.4432 116.578 41.0928 117.506 40.392C118.434 39.6818 119.14 38.7017 119.623 37.4517C120.106 36.1922 120.347 34.7386 120.347 33.0909C120.347 31.4621 120.111 30.0369 119.637 28.8153C119.164 27.5843 118.463 26.6278 117.535 25.946C116.607 25.2547 115.461 24.9091 114.097 24.9091C112.677 24.9091 111.493 25.2737 110.546 26.0028C109.609 26.7225 108.903 27.7027 108.43 28.9432C107.966 30.1742 107.734 31.5568 107.734 33.0909C107.734 34.6439 107.97 36.0549 108.444 37.3239C108.927 38.5833 109.637 39.5871 110.575 40.3352C111.522 41.0739 112.696 41.4432 114.097 41.4432ZM143.529 35.0795V22.1818H146.881V44H143.529V40.3068H143.302C142.79 41.4148 141.995 42.357 140.915 43.1335C139.836 43.9006 138.472 44.2841 136.825 44.2841C135.461 44.2841 134.249 43.9858 133.188 43.3892C132.128 42.7831 131.294 41.8741 130.688 40.6619C130.082 39.4403 129.779 37.9015 129.779 36.0455V22.1818H133.131V35.8182C133.131 37.4091 133.576 38.678 134.467 39.625C135.366 40.572 136.512 41.0455 137.904 41.0455C138.737 41.0455 139.585 40.8324 140.447 40.4062C141.318 39.9801 142.047 39.3267 142.634 38.446C143.231 37.5653 143.529 36.4432 143.529 35.0795ZM153.021 44V22.1818H156.374V44H153.021ZM154.726 18.5455C154.072 18.5455 153.509 18.3229 153.036 17.8778C152.571 17.4328 152.339 16.8977 152.339 16.2727C152.339 15.6477 152.571 15.1127 153.036 14.6676C153.509 14.2225 154.072 14 154.726 14C155.379 14 155.938 14.2225 156.402 14.6676C156.875 15.1127 157.112 15.6477 157.112 16.2727C157.112 16.8977 156.875 17.4328 156.402 17.8778C155.938 18.3229 155.379 18.5455 154.726 18.5455ZM177.968 27.0682L174.957 27.9205C174.767 27.4186 174.488 26.9309 174.119 26.4574C173.759 25.9744 173.266 25.5767 172.641 25.2642C172.016 24.9517 171.216 24.7955 170.241 24.7955C168.906 24.7955 167.793 25.1032 166.903 25.7188C166.022 26.3248 165.582 27.0966 165.582 28.0341C165.582 28.8674 165.885 29.5256 166.491 30.0085C167.097 30.4915 168.044 30.8939 169.332 31.2159L172.57 32.0114C174.521 32.4848 175.975 33.2093 176.931 34.1847C177.888 35.1506 178.366 36.3958 178.366 37.9205C178.366 39.1705 178.006 40.2879 177.286 41.2727C176.576 42.2576 175.582 43.0341 174.303 43.6023C173.025 44.1705 171.538 44.4545 169.843 44.4545C167.618 44.4545 165.776 43.9716 164.317 43.0057C162.859 42.0398 161.936 40.6288 161.548 38.7727L164.729 37.9773C165.032 39.1515 165.605 40.0322 166.448 40.6193C167.3 41.2064 168.413 41.5 169.786 41.5C171.349 41.5 172.589 41.1686 173.508 40.5057C174.436 39.8333 174.9 39.0284 174.9 38.0909C174.9 37.3333 174.635 36.6989 174.104 36.1875C173.574 35.6667 172.76 35.2784 171.661 35.0227L168.025 34.1705C166.027 33.697 164.559 32.9631 163.621 31.9688C162.693 30.965 162.229 29.7102 162.229 28.2045C162.229 26.9735 162.575 25.8845 163.266 24.9375C163.967 23.9905 164.919 23.2472 166.121 22.7074C167.334 22.1676 168.707 21.8977 170.241 21.8977C172.4 21.8977 174.095 22.3712 175.326 23.3182C176.567 24.2652 177.447 25.5152 177.968 27.0682ZM189.832 44.5114C188.45 44.5114 187.195 44.2509 186.068 43.7301C184.941 43.1998 184.046 42.4375 183.384 41.4432C182.721 40.4394 182.389 39.2273 182.389 37.8068C182.389 36.5568 182.635 35.5436 183.128 34.767C183.62 33.9811 184.278 33.3655 185.102 32.9205C185.926 32.4754 186.835 32.1439 187.83 31.9261C188.833 31.6989 189.842 31.5189 190.855 31.3864C192.181 31.2159 193.256 31.0881 194.08 31.0028C194.913 30.9081 195.519 30.7519 195.898 30.5341C196.286 30.3163 196.48 29.9375 196.48 29.3977V29.2841C196.48 27.8826 196.097 26.7936 195.33 26.017C194.572 25.2405 193.421 24.8523 191.878 24.8523C190.277 24.8523 189.023 25.2027 188.114 25.9034C187.205 26.6042 186.565 27.3523 186.196 28.1477L183.014 27.0114C183.582 25.6856 184.34 24.6534 185.287 23.9148C186.243 23.1667 187.285 22.6458 188.412 22.3523C189.548 22.0492 190.666 21.8977 191.764 21.8977C192.465 21.8977 193.27 21.983 194.179 22.1534C195.098 22.3144 195.983 22.6506 196.835 23.1619C197.697 23.6733 198.412 24.4451 198.98 25.4773C199.548 26.5095 199.832 27.892 199.832 29.625V44H196.48V41.0455H196.31C196.082 41.5189 195.704 42.0256 195.173 42.5653C194.643 43.1051 193.938 43.5644 193.057 43.9432C192.176 44.322 191.101 44.5114 189.832 44.5114ZM190.344 41.5C191.67 41.5 192.787 41.2396 193.696 40.7188C194.615 40.1979 195.306 39.5256 195.77 38.7017C196.243 37.8778 196.48 37.0114 196.48 36.1023V33.0341C196.338 33.2045 196.026 33.3608 195.543 33.5028C195.069 33.6354 194.52 33.7538 193.895 33.858C193.279 33.9527 192.678 34.0379 192.091 34.1136C191.513 34.1799 191.045 34.2367 190.685 34.2841C189.813 34.3977 188.999 34.5824 188.241 34.8381C187.493 35.0843 186.887 35.4583 186.423 35.9602C185.969 36.4527 185.741 37.125 185.741 37.9773C185.741 39.142 186.172 40.0227 187.034 40.6193C187.905 41.2064 189.009 41.5 190.344 41.5ZM205.951 44V22.1818H209.19V25.4773H209.417C209.815 24.3977 210.534 23.5218 211.576 22.8494C212.618 22.1771 213.792 21.8409 215.099 21.8409C215.345 21.8409 215.653 21.8456 216.022 21.8551C216.391 21.8646 216.671 21.8788 216.86 21.8977V25.3068C216.746 25.2784 216.486 25.2358 216.079 25.179C215.681 25.1127 215.26 25.0795 214.815 25.0795C213.754 25.0795 212.807 25.3021 211.974 25.7472C211.15 26.1828 210.496 26.7888 210.013 27.5653C209.54 28.3324 209.303 29.2083 209.303 30.1932V44H205.951ZM220.777 44.2273C220.076 44.2273 219.475 43.9763 218.973 43.4744C218.471 42.9725 218.22 42.3712 218.22 41.6705C218.22 40.9697 218.471 40.3684 218.973 39.8665C219.475 39.3646 220.076 39.1136 220.777 39.1136C221.478 39.1136 222.079 39.3646 222.581 39.8665C223.083 40.3684 223.334 40.9697 223.334 41.6705C223.334 42.1345 223.215 42.5606 222.979 42.9489C222.751 43.3371 222.444 43.6496 222.055 43.8864C221.677 44.1136 221.25 44.2273 220.777 44.2273ZM231.793 44.2273C231.092 44.2273 230.491 43.9763 229.989 43.4744C229.487 42.9725 229.236 42.3712 229.236 41.6705C229.236 40.9697 229.487 40.3684 229.989 39.8665C230.491 39.3646 231.092 39.1136 231.793 39.1136C232.493 39.1136 233.095 39.3646 233.597 39.8665C234.098 40.3684 234.349 40.9697 234.349 41.6705C234.349 42.1345 234.231 42.5606 233.994 42.9489C233.767 43.3371 233.459 43.6496 233.071 43.8864C232.692 44.1136 232.266 44.2273 231.793 44.2273ZM242.808 44.2273C242.107 44.2273 241.506 43.9763 241.004 43.4744C240.502 42.9725 240.251 42.3712 240.251 41.6705C240.251 40.9697 240.502 40.3684 241.004 39.8665C241.506 39.3646 242.107 39.1136 242.808 39.1136C243.509 39.1136 244.11 39.3646 244.612 39.8665C245.114 40.3684 245.365 40.9697 245.365 41.6705C245.365 42.1345 245.247 42.5606 245.01 42.9489C244.783 43.3371 244.475 43.6496 244.087 43.8864C243.708 44.1136 243.282 44.2273 242.808 44.2273Z" fill="#B46E57"/>
<path d="M363.121 40.2306L368.664 34.6877L372.928 32.9263C371.508 30.9076 370.747 28.4992 370.75 26.0312C370.75 19.3972 376.147 14 382.781 14C389.415 14 394.813 19.3972 394.813 26.0312C394.813 32.6653 389.415 38.0625 382.781 38.0625C380.292 38.0653 377.864 37.2917 375.835 35.8492L374.078 40.1012L368.535 45.6443C368.18 45.9998 367.758 46.2818 367.293 46.4742C366.829 46.6666 366.331 46.7656 365.828 46.7656C365.326 46.7657 364.828 46.6667 364.363 46.4743C363.899 46.2819 363.477 45.9999 363.121 45.6445C362.766 45.289 362.484 44.867 362.292 44.4025C362.099 43.9381 362 43.4403 362 42.9376C362 42.4348 362.099 41.937 362.291 41.4726C362.484 41.0081 362.766 40.5861 363.121 40.2306ZM392.625 26.0312C392.625 20.6035 388.209 16.1875 382.781 16.1875C377.354 16.1875 372.938 20.6035 372.938 26.0312C372.938 31.459 377.354 35.875 382.781 35.875C388.209 35.875 392.625 31.459 392.625 26.0312ZM364.668 44.0975C364.976 44.4048 365.393 44.5773 365.828 44.5773C366.263 44.5773 366.68 44.4048 366.988 44.0975L372.223 38.8631L373.856 34.9096L369.902 36.5429L364.668 41.7774C364.361 42.0853 364.188 42.5025 364.188 42.9375C364.188 43.3724 364.361 43.7896 364.668 44.0975Z" fill="#B46E57"/>
</svg>
