<svg width="119" height="33" viewBox="0 0 119 31" fill="none" xmlns="http://www.w3.org/2000/svg">
<path d="M35.8963 27V5.18182H40.5092V14.1839H49.8736V5.18182H54.4759V27H49.8736V17.9872H40.5092V27H35.8963ZM65.5874 27.3196C63.9325 27.3196 62.5014 26.968 61.294 26.2649C60.0938 25.5547 59.1669 24.5675 58.5135 23.3033C57.8601 22.032 57.5334 20.5582 57.5334 18.8821C57.5334 17.1918 57.8601 15.7145 58.5135 14.4503C59.1669 13.179 60.0938 12.1918 61.294 11.4886C62.5014 10.7784 63.9325 10.4233 65.5874 10.4233C67.2422 10.4233 68.6697 10.7784 69.87 11.4886C71.0774 12.1918 72.0078 13.179 72.6612 14.4503C73.3146 15.7145 73.6413 17.1918 73.6413 18.8821C73.6413 20.5582 73.3146 22.032 72.6612 23.3033C72.0078 24.5675 71.0774 25.5547 69.87 26.2649C68.6697 26.968 67.2422 27.3196 65.5874 27.3196ZM65.6087 23.804C66.3615 23.804 66.9901 23.5909 67.4943 23.1648C67.9986 22.7315 68.3786 22.142 68.6342 21.3963C68.897 20.6506 69.0284 19.8018 69.0284 18.8501C69.0284 17.8984 68.897 17.0497 68.6342 16.304C68.3786 15.5582 67.9986 14.9687 67.4943 14.5355C66.9901 14.1023 66.3615 13.8857 65.6087 13.8857C64.8487 13.8857 64.2095 14.1023 63.6911 14.5355C63.1797 14.9687 62.7926 15.5582 62.5298 16.304C62.2741 17.0497 62.1463 17.8984 62.1463 18.8501C62.1463 19.8018 62.2741 20.6506 62.5298 21.3963C62.7926 22.142 63.1797 22.7315 63.6911 23.1648C64.2095 23.5909 64.8487 23.804 65.6087 23.804ZM76.5923 27V10.6364H80.9176V13.5234H81.1094C81.4503 12.5646 82.0185 11.8082 82.8139 11.2543C83.6094 10.7003 84.5611 10.4233 85.669 10.4233C86.7912 10.4233 87.7464 10.7038 88.5348 11.2649C89.3232 11.8189 89.8487 12.5717 90.1115 13.5234H90.282C90.6158 12.5859 91.2195 11.8366 92.093 11.2756C92.9737 10.7074 94.0142 10.4233 95.2145 10.4233C96.7415 10.4233 97.9808 10.9098 98.9325 11.8828C99.8913 12.8487 100.371 14.2195 100.371 15.995V27H95.843V16.8899C95.843 15.9808 95.6016 15.299 95.1186 14.8445C94.6357 14.3899 94.032 14.1626 93.3075 14.1626C92.4837 14.1626 91.8409 14.4254 91.3793 14.951C90.9176 15.4695 90.6868 16.1548 90.6868 17.0071V27H86.2869V16.794C86.2869 15.9915 86.0561 15.3523 85.5945 14.8764C85.1399 14.4006 84.5398 14.1626 83.794 14.1626C83.2898 14.1626 82.8352 14.2905 82.4304 14.5462C82.0327 14.7947 81.7166 15.1463 81.4822 15.6009C81.2479 16.0483 81.1307 16.5739 81.1307 17.1776V27H76.5923ZM111.413 27.3196C109.73 27.3196 108.281 26.9787 107.066 26.2969C105.859 25.608 104.929 24.6349 104.275 23.3778C103.622 22.1136 103.295 20.6186 103.295 18.8928C103.295 17.2095 103.622 15.7322 104.275 14.4609C104.929 13.1896 105.848 12.1989 107.034 11.4886C108.228 10.7784 109.627 10.4233 111.232 10.4233C112.311 10.4233 113.316 10.5973 114.247 10.9453C115.184 11.2862 116.001 11.8011 116.697 12.4901C117.4 13.179 117.947 14.0455 118.338 15.0895C118.728 16.1264 118.924 17.3409 118.924 18.733V19.9794H105.106V17.1669H114.652C114.652 16.5135 114.51 15.9347 114.225 15.4304C113.941 14.9261 113.547 14.532 113.043 14.2479C112.546 13.9567 111.967 13.8111 111.306 13.8111C110.618 13.8111 110.007 13.9709 109.474 14.2905C108.949 14.603 108.537 15.0256 108.238 15.5582C107.94 16.0838 107.787 16.6697 107.78 17.3161V19.9901C107.78 20.7997 107.929 21.4993 108.228 22.0888C108.533 22.6783 108.963 23.1328 109.517 23.4524C110.071 23.772 110.728 23.9318 111.488 23.9318C111.992 23.9318 112.453 23.8608 112.873 23.7188C113.292 23.5767 113.65 23.3636 113.949 23.0795C114.247 22.7955 114.474 22.4474 114.63 22.0355L118.828 22.3125C118.615 23.321 118.178 24.2017 117.517 24.9545C116.864 25.7003 116.019 26.2827 114.982 26.7017C113.952 27.1136 112.762 27.3196 111.413 27.3196Z" fill="#FFEEEE"/>
<path d="M2.37501 16.9583H3.83335V27.1667C3.83335 28.7752 5.14147 30.0833 6.75001 30.0833H24.25C25.8586 30.0833 27.1667 28.7752 27.1667 27.1667V16.9583H28.625C28.9134 16.9583 29.1953 16.8727 29.4351 16.7125C29.6748 16.5522 29.8617 16.3245 29.972 16.058C30.0824 15.7916 30.1113 15.4984 30.055 15.2156C29.9988 14.9327 29.8599 14.6729 29.6561 14.469L16.5311 1.34395C16.3957 1.20841 16.235 1.10087 16.0581 1.0275C15.8812 0.954132 15.6915 0.916367 15.5 0.916367C15.3085 0.916367 15.1188 0.954132 14.9419 1.0275C14.765 1.10087 14.6043 1.20841 14.469 1.34395L1.34397 14.469C1.14008 14.6729 1.00124 14.9327 0.944997 15.2156C0.888753 15.4984 0.917632 15.7916 1.02798 16.058C1.13834 16.3245 1.32521 16.5522 1.56497 16.7125C1.80474 16.8727 2.08663 16.9583 2.37501 16.9583ZM12.5833 27.1667V19.875H18.4167V27.1667H12.5833ZM15.5 4.43708L24.25 13.1871V19.875L24.2515 27.1667H21.3333V19.875C21.3333 18.2665 20.0252 16.9583 18.4167 16.9583H12.5833C10.9748 16.9583 9.66668 18.2665 9.66668 19.875V27.1667H6.75001V13.1871L15.5 4.43708Z" fill="#FFEEEE"/>
</svg>
