<svg width="145" height="104" viewBox="0 0 145 104" fill="none" xmlns="http://www.w3.org/2000/svg">
<ellipse rx="51.9823" ry="51.7102" transform="matrix(0.000336123 -1 -1 -0.000339672 52.0871 52.0001)" fill="#FABEB1"/>
<path fill-rule="evenodd" clip-rule="evenodd" d="M0.376341 53.0923C0.954388 81.2891 23.8682 103.973 52.0581 103.982C58.009 103.984 63.7255 102.976 69.047 101.118C71.2678 95.9259 72.4987 90.2047 72.5007 84.1946C72.5086 60.4924 53.4012 41.2715 29.823 41.2634C18.4084 41.2595 8.03862 45.7593 0.376341 53.0923Z" fill="#7E605A"/>
<path fill-rule="evenodd" clip-rule="evenodd" d="M0.00428523 51.9822C0.0138816 23.2732 23.1732 0.00789155 51.732 0.017638C53.857 0.0183598 55.9521 0.147932 58.0098 0.398997C64.2452 7.24391 68.0258 16.2258 68.0225 26.06C68.0152 47.5114 50.0068 64.8951 27.7995 64.8875C17.0362 64.8839 7.26199 60.7955 0.047322 54.1405C0.0184793 53.4247 0.00404223 52.7052 0.00428523 51.9822Z" fill="#BA8D84"/>
<path d="M16.5284 53V23.9091H28.1761C30.3163 23.9091 32.1013 24.2263 33.5312 24.8608C34.9612 25.4953 36.036 26.3759 36.7557 27.5028C37.4754 28.6203 37.8352 29.9081 37.8352 31.3665C37.8352 32.5028 37.608 33.5019 37.1534 34.3636C36.6989 35.2159 36.0739 35.9167 35.2784 36.4659C34.4924 37.0057 33.5928 37.3892 32.5795 37.6165V37.9006C33.6875 37.9479 34.7244 38.2604 35.6903 38.8381C36.6657 39.4157 37.4564 40.2254 38.0625 41.267C38.6686 42.2992 38.9716 43.5303 38.9716 44.9602C38.9716 46.5038 38.5881 47.8816 37.821 49.0938C37.0634 50.2964 35.9413 51.2481 34.4545 51.9489C32.9678 52.6496 31.1354 53 28.9574 53H16.5284ZM22.679 47.9716H27.6932C29.4072 47.9716 30.6572 47.6449 31.4432 46.9915C32.2292 46.3286 32.6222 45.4479 32.6222 44.3494C32.6222 43.5445 32.428 42.8343 32.0398 42.2188C31.6515 41.6032 31.0975 41.1203 30.3778 40.7699C29.6676 40.4195 28.8201 40.2443 27.8352 40.2443H22.679V47.9716ZM22.679 36.0824H27.2386C28.0814 36.0824 28.8295 35.9356 29.483 35.642C30.1458 35.339 30.6667 34.9129 31.0455 34.3636C31.4337 33.8144 31.6278 33.1562 31.6278 32.3892C31.6278 31.3381 31.2538 30.4905 30.5057 29.8466C29.767 29.2027 28.7159 28.8807 27.3523 28.8807H22.679V36.0824Z" fill="#FFEEEE"/>
<path d="M69.2222 99L70.3133 93.5136C73.2773 78.6094 68.227 63.2408 57 53V53V53C69.6453 39.2051 70.2958 18.2348 58.5297 3.68267L57.9778 3" stroke="#FFEEEE" stroke-width="5" stroke-linecap="round" stroke-linejoin="round"/>
<ellipse cx="56.5" cy="53" rx="2.5" ry="2" fill="#FFEEEE"/>
<path d="M43.2727 93.4261C41.0379 93.4261 39.1155 92.9527 37.5057 92.0057C35.9053 91.0492 34.6742 89.7235 33.8125 88.0284C32.9602 86.3333 32.5341 84.3826 32.5341 82.1761C32.5341 79.9413 32.965 77.9811 33.8267 76.2955C34.6979 74.6004 35.9337 73.2794 37.5341 72.3324C39.1345 71.3759 41.0379 70.8977 43.2443 70.8977C45.1477 70.8977 46.8144 71.2434 48.2443 71.9347C49.6742 72.6259 50.8059 73.5966 51.6392 74.8466C52.4725 76.0966 52.9318 77.5644 53.017 79.25H47.3068C47.1458 78.161 46.7197 77.285 46.0284 76.6222C45.3466 75.9498 44.4517 75.6136 43.3438 75.6136C42.4062 75.6136 41.5871 75.8693 40.8864 76.3807C40.1951 76.8826 39.6553 77.6165 39.267 78.5824C38.8788 79.5483 38.6847 80.7178 38.6847 82.0909C38.6847 83.483 38.8741 84.6667 39.2528 85.642C39.6411 86.6174 40.1856 87.3608 40.8864 87.8722C41.5871 88.3835 42.4062 88.6392 43.3438 88.6392C44.035 88.6392 44.6553 88.4972 45.2045 88.2131C45.7633 87.929 46.2225 87.517 46.5824 86.9773C46.9517 86.428 47.1932 85.7699 47.3068 85.0028H53.017C52.9223 86.6695 52.4678 88.1373 51.6534 89.4062C50.8485 90.6657 49.7358 91.6506 48.3153 92.3608C46.8949 93.071 45.214 93.4261 43.2727 93.4261Z" fill="#FFEEEE"/>
</svg>
