<svg width="260" height="29" viewBox="0 0 260 29" fill="none" xmlns="http://www.w3.org/2000/svg">
<path d="M39.8963 25V3.18182H48.5043C50.1591 3.18182 51.5689 3.49787 52.7337 4.12997C53.8984 4.75497 54.7862 5.625 55.397 6.74006C56.0149 7.84801 56.3239 9.12642 56.3239 10.5753C56.3239 12.0241 56.0114 13.3026 55.3864 14.4105C54.7614 15.5185 53.8558 16.3814 52.6697 16.9993C51.4908 17.6172 50.0632 17.9261 48.3871 17.9261H42.9006V14.2294H47.6413C48.5291 14.2294 49.2607 14.0767 49.8359 13.7713C50.4183 13.4588 50.8516 13.0291 51.1357 12.4822C51.4268 11.9283 51.5724 11.2926 51.5724 10.5753C51.5724 9.85085 51.4268 9.21875 51.1357 8.67898C50.8516 8.1321 50.4183 7.70952 49.8359 7.41122C49.2536 7.10582 48.5149 6.95312 47.62 6.95312H44.5092V25H39.8963ZM59.2349 25V8.63636H63.6348V11.4915H63.8052C64.1035 10.4759 64.6042 9.70881 65.3074 9.19034C66.0105 8.66477 66.8201 8.40199 67.7363 8.40199C67.9636 8.40199 68.2086 8.41619 68.4714 8.4446C68.7342 8.47301 68.965 8.51207 69.1639 8.56179V12.5888C68.9508 12.5249 68.6561 12.468 68.2797 12.4183C67.9032 12.3686 67.5588 12.3438 67.2463 12.3438C66.5787 12.3438 65.9821 12.4893 65.4565 12.7805C64.938 13.0646 64.5261 13.4624 64.2207 13.9737C63.9224 14.4851 63.7733 15.0746 63.7733 15.7422V25H59.2349ZM78.142 25.3196C76.4872 25.3196 75.0561 24.968 73.8487 24.2649C72.6484 23.5547 71.7216 22.5675 71.0682 21.3033C70.4148 20.032 70.0881 18.5582 70.0881 16.8821C70.0881 15.1918 70.4148 13.7145 71.0682 12.4503C71.7216 11.179 72.6484 10.1918 73.8487 9.48864C75.0561 8.77841 76.4872 8.4233 78.142 8.4233C79.7969 8.4233 81.2244 8.77841 82.4247 9.48864C83.6321 10.1918 84.5625 11.179 85.2159 12.4503C85.8693 13.7145 86.196 15.1918 86.196 16.8821C86.196 18.5582 85.8693 20.032 85.2159 21.3033C84.5625 22.5675 83.6321 23.5547 82.4247 24.2649C81.2244 24.968 79.7969 25.3196 78.142 25.3196ZM78.1634 21.804C78.9162 21.804 79.5447 21.5909 80.049 21.1648C80.5533 20.7315 80.9332 20.142 81.1889 19.3963C81.4517 18.6506 81.5831 17.8018 81.5831 16.8501C81.5831 15.8984 81.4517 15.0497 81.1889 14.304C80.9332 13.5582 80.5533 12.9687 80.049 12.5355C79.5447 12.1023 78.9162 11.8857 78.1634 11.8857C77.4034 11.8857 76.7642 12.1023 76.2457 12.5355C75.7344 12.9687 75.3473 13.5582 75.0845 14.304C74.8288 15.0497 74.701 15.8984 74.701 16.8501C74.701 17.8018 74.8288 18.6506 75.0845 19.3963C75.3473 20.142 75.7344 20.7315 76.2457 21.1648C76.7642 21.5909 77.4034 21.804 78.1634 21.804ZM96.5405 25.3196C94.8643 25.3196 93.4226 24.9645 92.2152 24.2543C91.0149 23.5369 90.0916 22.5426 89.4453 21.2713C88.8061 20 88.4865 18.5369 88.4865 16.8821C88.4865 15.206 88.8097 13.7358 89.456 12.4716C90.1094 11.2003 91.0362 10.2095 92.2365 9.49929C93.4368 8.78196 94.8643 8.4233 96.5192 8.4233C97.9467 8.4233 99.1967 8.68253 100.269 9.20099C101.342 9.71946 102.19 10.4474 102.815 11.3849C103.44 12.3224 103.785 13.4233 103.849 14.6875H99.5661C99.4453 13.8707 99.1257 13.2138 98.6072 12.7166C98.0959 12.2124 97.4247 11.9602 96.5938 11.9602C95.8906 11.9602 95.2763 12.152 94.7507 12.5355C94.2322 12.9119 93.8274 13.4624 93.5362 14.1868C93.245 14.9112 93.0994 15.7884 93.0994 16.8182C93.0994 17.8622 93.2415 18.75 93.5256 19.4815C93.8168 20.2131 94.2251 20.7706 94.7507 21.1541C95.2763 21.5376 95.8906 21.7294 96.5938 21.7294C97.1122 21.7294 97.5774 21.6229 97.9893 21.4098C98.4084 21.1967 98.7528 20.8878 99.0227 20.483C99.2997 20.071 99.4808 19.5774 99.5661 19.0021H103.849C103.778 20.2521 103.437 21.353 102.826 22.3047C102.222 23.2493 101.388 23.9879 100.322 24.5206C99.2571 25.0533 97.9964 25.3196 96.5405 25.3196ZM114.212 25.3196C112.529 25.3196 111.08 24.9787 109.865 24.2969C108.658 23.608 107.727 22.6349 107.074 21.3778C106.421 20.1136 106.094 18.6186 106.094 16.8928C106.094 15.2095 106.421 13.7322 107.074 12.4609C107.727 11.1896 108.647 10.1989 109.833 9.48864C111.026 8.77841 112.426 8.4233 114.031 8.4233C115.11 8.4233 116.115 8.5973 117.046 8.94531C117.983 9.28622 118.8 9.80114 119.496 10.4901C120.199 11.179 120.746 12.0455 121.137 13.0895C121.527 14.1264 121.722 15.3409 121.722 16.733V17.9794H107.905V15.1669H117.45C117.45 14.5135 117.308 13.9347 117.024 13.4304C116.74 12.9261 116.346 12.532 115.842 12.2479C115.345 11.9567 114.766 11.8111 114.105 11.8111C113.416 11.8111 112.806 11.9709 112.273 12.2905C111.747 12.603 111.335 13.0256 111.037 13.5582C110.739 14.0838 110.586 14.6697 110.579 15.3161V17.9901C110.579 18.7997 110.728 19.4993 111.026 20.0888C111.332 20.6783 111.762 21.1328 112.316 21.4524C112.869 21.772 113.526 21.9318 114.286 21.9318C114.791 21.9318 115.252 21.8608 115.671 21.7188C116.09 21.5767 116.449 21.3636 116.747 21.0795C117.046 20.7955 117.273 20.4474 117.429 20.0355L121.627 20.3125C121.414 21.321 120.977 22.2017 120.316 22.9545C119.663 23.7003 118.818 24.2827 117.781 24.7017C116.751 25.1136 115.561 25.3196 114.212 25.3196ZM130.714 25.2663C129.471 25.2663 128.345 24.9467 127.337 24.3075C126.335 23.6612 125.54 22.7131 124.95 21.4631C124.368 20.206 124.077 18.6648 124.077 16.8395C124.077 14.9645 124.379 13.4055 124.982 12.1626C125.586 10.9126 126.389 9.97869 127.39 9.3608C128.399 8.7358 129.503 8.4233 130.703 8.4233C131.619 8.4233 132.383 8.57955 132.994 8.89205C133.612 9.19744 134.109 9.58097 134.485 10.0426C134.869 10.4972 135.16 10.9446 135.359 11.3849H135.497V3.18182H140.025V25H135.551V22.3793H135.359C135.146 22.8338 134.844 23.2848 134.453 23.7322C134.07 24.1726 133.569 24.5384 132.951 24.8295C132.34 25.1207 131.595 25.2663 130.714 25.2663ZM132.152 21.6548C132.884 21.6548 133.502 21.456 134.006 21.0582C134.517 20.6534 134.908 20.0888 135.178 19.3643C135.455 18.6399 135.593 17.7912 135.593 16.8182C135.593 15.8452 135.458 15 135.188 14.2827C134.919 13.5653 134.528 13.0114 134.017 12.6207C133.505 12.2301 132.884 12.0348 132.152 12.0348C131.406 12.0348 130.778 12.2372 130.267 12.642C129.755 13.0469 129.368 13.608 129.105 14.3253C128.843 15.0426 128.711 15.8736 128.711 16.8182C128.711 17.7699 128.843 18.6115 129.105 19.343C129.375 20.0675 129.762 20.6357 130.267 21.0476C130.778 21.4524 131.406 21.6548 132.152 21.6548ZM143.756 25V8.63636H148.295V25H143.756ZM146.036 6.52699C145.362 6.52699 144.783 6.30327 144.3 5.85582C143.824 5.40128 143.586 4.85795 143.586 4.22585C143.586 3.60085 143.824 3.06463 144.3 2.61719C144.783 2.16264 145.362 1.93537 146.036 1.93537C146.711 1.93537 147.286 2.16264 147.762 2.61719C148.245 3.06463 148.487 3.60085 148.487 4.22585C148.487 4.85795 148.245 5.40128 147.762 5.85582C147.286 6.30327 146.711 6.52699 146.036 6.52699ZM151.93 25V8.63636H156.256V11.5234H156.447C156.788 10.5646 157.356 9.80824 158.152 9.25426C158.947 8.70028 159.899 8.4233 161.007 8.4233C162.129 8.4233 163.084 8.70384 163.873 9.26491C164.661 9.81889 165.187 10.5717 165.449 11.5234H165.62C165.954 10.5859 166.557 9.83665 167.431 9.27557C168.312 8.70739 169.352 8.4233 170.552 8.4233C172.079 8.4233 173.319 8.9098 174.27 9.88281C175.229 10.8487 175.709 12.2195 175.709 13.995V25H171.181V14.8899C171.181 13.9808 170.939 13.299 170.456 12.8445C169.974 12.3899 169.37 12.1626 168.645 12.1626C167.822 12.1626 167.179 12.4254 166.717 12.951C166.256 13.4695 166.025 14.1548 166.025 15.0071V25H161.625V14.794C161.625 13.9915 161.394 13.3523 160.932 12.8764C160.478 12.4006 159.878 12.1626 159.132 12.1626C158.628 12.1626 158.173 12.2905 157.768 12.5462C157.371 12.7947 157.055 13.1463 156.82 13.6009C156.586 14.0483 156.469 14.5739 156.469 15.1776V25H151.93ZM186.751 25.3196C185.068 25.3196 183.619 24.9787 182.404 24.2969C181.197 23.608 180.267 22.6349 179.613 21.3778C178.96 20.1136 178.633 18.6186 178.633 16.8928C178.633 15.2095 178.96 13.7322 179.613 12.4609C180.267 11.1896 181.186 10.1989 182.372 9.48864C183.566 8.77841 184.965 8.4233 186.57 8.4233C187.649 8.4233 188.654 8.5973 189.585 8.94531C190.522 9.28622 191.339 9.80114 192.035 10.4901C192.738 11.179 193.285 12.0455 193.676 13.0895C194.066 14.1264 194.262 15.3409 194.262 16.733V17.9794H180.444V15.1669H189.99C189.99 14.5135 189.847 13.9347 189.563 13.4304C189.279 12.9261 188.885 12.532 188.381 12.2479C187.884 11.9567 187.305 11.8111 186.644 11.8111C185.955 11.8111 185.345 11.9709 184.812 12.2905C184.286 12.603 183.874 13.0256 183.576 13.5582C183.278 14.0838 183.125 14.6697 183.118 15.3161V17.9901C183.118 18.7997 183.267 19.4993 183.566 20.0888C183.871 20.6783 184.301 21.1328 184.855 21.4524C185.409 21.772 186.066 21.9318 186.825 21.9318C187.33 21.9318 187.791 21.8608 188.21 21.7188C188.629 21.5767 188.988 21.3636 189.286 21.0795C189.585 20.7955 189.812 20.4474 189.968 20.0355L194.166 20.3125C193.953 21.321 193.516 22.2017 192.855 22.9545C192.202 23.7003 191.357 24.2827 190.32 24.7017C189.29 25.1136 188.1 25.3196 186.751 25.3196ZM201.762 15.5398V25H197.223V8.63636H201.548V11.5234H201.74C202.102 10.5717 202.71 9.81889 203.562 9.26491C204.414 8.70384 205.448 8.4233 206.662 8.4233C207.798 8.4233 208.789 8.67187 209.634 9.16903C210.48 9.66619 211.137 10.3764 211.605 11.2997C212.074 12.2159 212.308 13.3097 212.308 14.581V25H207.77V15.3906C207.777 14.3892 207.521 13.608 207.003 13.0469C206.485 12.4787 205.771 12.1946 204.862 12.1946C204.251 12.1946 203.711 12.326 203.242 12.5888C202.781 12.8516 202.419 13.2351 202.156 13.7393C201.9 14.2365 201.769 14.8366 201.762 15.5398ZM224.589 8.63636V12.0455H214.735V8.63636H224.589ZM216.972 4.71591H221.51V19.9716C221.51 20.3906 221.574 20.7173 221.702 20.9517C221.83 21.179 222.007 21.3388 222.235 21.4311C222.469 21.5234 222.739 21.5696 223.044 21.5696C223.257 21.5696 223.471 21.5518 223.684 21.5163C223.897 21.4737 224.06 21.4418 224.174 21.4205L224.887 24.7976C224.66 24.8686 224.341 24.9503 223.929 25.0426C223.517 25.142 223.016 25.2024 222.426 25.2237C221.333 25.2663 220.374 25.1207 219.55 24.7869C218.733 24.4531 218.098 23.9347 217.643 23.2315C217.189 22.5284 216.965 21.6406 216.972 20.5682V4.71591ZM234.763 25.3196C233.108 25.3196 231.677 24.968 230.47 24.2649C229.27 23.5547 228.343 22.5675 227.689 21.3033C227.036 20.032 226.709 18.5582 226.709 16.8821C226.709 15.1918 227.036 13.7145 227.689 12.4503C228.343 11.179 229.27 10.1918 230.47 9.48864C231.677 8.77841 233.108 8.4233 234.763 8.4233C236.418 8.4233 237.846 8.77841 239.046 9.48864C240.253 10.1918 241.184 11.179 241.837 12.4503C242.49 13.7145 242.817 15.1918 242.817 16.8821C242.817 18.5582 242.49 20.032 241.837 21.3033C241.184 22.5675 240.253 23.5547 239.046 24.2649C237.846 24.968 236.418 25.3196 234.763 25.3196ZM234.784 21.804C235.537 21.804 236.166 21.5909 236.67 21.1648C237.174 20.7315 237.554 20.142 237.81 19.3963C238.073 18.6506 238.204 17.8018 238.204 16.8501C238.204 15.8984 238.073 15.0497 237.81 14.304C237.554 13.5582 237.174 12.9687 236.67 12.5355C236.166 12.1023 235.537 11.8857 234.784 11.8857C234.025 11.8857 233.385 12.1023 232.867 12.5355C232.355 12.9687 231.968 13.5582 231.706 14.304C231.45 15.0497 231.322 15.8984 231.322 16.8501C231.322 17.8018 231.45 18.6506 231.706 19.3963C231.968 20.142 232.355 20.7315 232.867 21.1648C233.385 21.5909 234.025 21.804 234.784 21.804ZM259.383 13.3026L255.228 13.5582C255.157 13.2031 255.005 12.8835 254.77 12.5994C254.536 12.3082 254.227 12.0774 253.843 11.907C253.467 11.7294 253.016 11.6406 252.49 11.6406C251.787 11.6406 251.194 11.7898 250.711 12.0881C250.228 12.3793 249.987 12.7699 249.987 13.2599C249.987 13.6506 250.143 13.9808 250.456 14.2507C250.768 14.5206 251.304 14.7372 252.064 14.9006L255.026 15.4972C256.617 15.8239 257.803 16.3494 258.584 17.0739C259.365 17.7983 259.756 18.75 259.756 19.929C259.756 21.0014 259.44 21.9425 258.808 22.7521C258.183 23.5618 257.324 24.1939 256.23 24.6484C255.143 25.0959 253.89 25.3196 252.469 25.3196C250.303 25.3196 248.577 24.8686 247.292 23.9666C246.013 23.0575 245.264 21.8217 245.044 20.2592L249.507 20.0249C249.642 20.6854 249.969 21.1896 250.488 21.5376C251.006 21.8786 251.67 22.049 252.48 22.049C253.275 22.049 253.914 21.8963 254.397 21.5909C254.887 21.2784 255.136 20.8771 255.143 20.3871C255.136 19.9751 254.962 19.6378 254.621 19.375C254.28 19.1051 253.755 18.8991 253.044 18.7571L250.211 18.1925C248.613 17.8729 247.423 17.3189 246.642 16.5305C245.868 15.7422 245.48 14.7372 245.48 13.5156C245.48 12.4645 245.765 11.5589 246.333 10.799C246.908 10.0391 247.714 9.45313 248.751 9.04119C249.795 8.62926 251.017 8.4233 252.416 8.4233C254.483 8.4233 256.109 8.86009 257.295 9.73366C258.488 10.6072 259.184 11.7969 259.383 13.3026Z" fill="#FFEEEE"/>
<path d="M6.74559 27.7456C6.66431 27.8271 6.56775 27.8917 6.46145 27.9359C6.35515 27.98 6.24119 28.0027 6.12609 28.0027C6.011 28.0027 5.89704 27.98 5.79073 27.9359C5.68443 27.8917 5.58787 27.8271 5.50659 27.7456L0.256592 22.4956C0.0922909 22.3313 -1.33514e-05 22.1085 -1.14441e-05 21.8761C-1.14441e-05 21.6437 0.0922909 21.4209 0.256592 21.2566C0.420895 21.0923 0.643734 21 0.876093 21C1.10845 21 1.33129 21.0923 1.49559 21.2566L2.18859 21.9514L5.32634 18.8136L2.00659 15.4956C1.84229 15.3313 1.74999 15.1085 1.74999 14.8761C1.74999 14.6437 1.84229 14.4209 2.00659 14.2566C2.17089 14.0923 2.39373 14 2.62609 14C2.85845 14 3.08129 14.0923 3.24559 14.2566L5.25109 16.2639L14.9811 6.53386C15.3875 6.1271 15.8701 5.80445 16.4013 5.58434C16.9325 5.36423 17.5019 5.251 18.0768 5.25111H21.5138L26.5066 0.256607C26.6709 0.0923042 26.8937 0 27.1261 0C27.3584 0 27.5813 0.0923042 27.7456 0.256607C27.9099 0.420908 28.0022 0.643749 28.0022 0.876106C28.0022 1.10846 27.9099 1.3313 27.7456 1.49561L22.7511 6.48836V9.92711C22.7508 11.0869 22.2901 12.1991 21.4701 13.0194L11.7401 22.7511L13.7456 24.7566C13.9099 24.9209 14.0022 25.1437 14.0022 25.3761C14.0022 25.6085 13.9099 25.8313 13.7456 25.9956C13.5813 26.1599 13.3584 26.2522 13.1261 26.2522C12.8937 26.2522 12.6709 26.1599 12.5066 25.9956L9.18859 22.6759L6.05084 25.8136L6.74559 26.5066C6.82708 26.5879 6.89173 26.6844 6.93584 26.7907C6.97995 26.8971 7.00266 27.011 7.00266 27.1261C7.00266 27.2412 6.97995 27.3552 6.93584 27.4615C6.89173 27.5678 6.82708 27.6643 6.74559 27.7456ZM14.0011 18.0139L15.3888 16.6261L14.2566 15.4956C14.0923 15.3313 14 15.1085 14 14.8761C14 14.6437 14.0923 14.4209 14.2566 14.2566C14.4209 14.0923 14.6437 14 14.8761 14C15.1084 14 15.3313 14.0923 15.4956 14.2566L16.6261 15.3889L18.0138 14.0011L16.8816 12.8706C16.7173 12.7063 16.625 12.4835 16.625 12.2511C16.625 12.0187 16.7173 11.7959 16.8816 11.6316C17.0459 11.4673 17.2687 11.375 17.5011 11.375C17.7334 11.375 17.9563 11.4673 18.1206 11.6316L19.2511 12.7639L20.2311 11.7839C20.4753 11.5399 20.6691 11.2502 20.8012 10.9313C20.9333 10.6124 21.0012 10.2705 21.0011 9.92536V7.00111H18.0751C17.3791 7.00172 16.7119 7.27868 16.2201 7.77111L6.49009 17.5011L10.5011 21.5139L12.7638 19.2511L11.6316 18.1206C11.4673 17.9563 11.375 17.7335 11.375 17.5011C11.375 17.2687 11.4673 17.0459 11.6316 16.8816C11.7959 16.7173 12.0187 16.625 12.2511 16.625C12.4834 16.625 12.7063 16.7173 12.8706 16.8816L14.0011 18.0139ZM3.42584 23.1886L4.81359 24.5764L7.95134 21.4386L6.56359 20.0509L3.42584 23.1886Z" fill="#FFEEEE"/>
</svg>
