<svg width="228" height="29" viewBox="0 0 228 29" fill="none" xmlns="http://www.w3.org/2000/svg">
<path d="M39.8963 25V3.18182H48.5043C50.1591 3.18182 51.5689 3.49787 52.7337 4.12997C53.8984 4.75497 54.7862 5.625 55.397 6.74006C56.0149 7.84801 56.3239 9.12642 56.3239 10.5753C56.3239 12.0241 56.0114 13.3026 55.3864 14.4105C54.7614 15.5185 53.8558 16.3814 52.6697 16.9993C51.4908 17.6172 50.0632 17.9261 48.3871 17.9261H42.9006V14.2294H47.6413C48.5291 14.2294 49.2607 14.0767 49.8359 13.7713C50.4183 13.4588 50.8516 13.0291 51.1357 12.4822C51.4268 11.9283 51.5724 11.2926 51.5724 10.5753C51.5724 9.85085 51.4268 9.21875 51.1357 8.67898C50.8516 8.1321 50.4183 7.70952 49.8359 7.41122C49.2536 7.10582 48.5149 6.95312 47.62 6.95312H44.5092V25H39.8963ZM59.2349 25V8.63636H63.6348V11.4915H63.8052C64.1035 10.4759 64.6042 9.70881 65.3074 9.19034C66.0105 8.66477 66.8201 8.40199 67.7363 8.40199C67.9636 8.40199 68.2086 8.41619 68.4714 8.4446C68.7342 8.47301 68.965 8.51207 69.1639 8.56179V12.5888C68.9508 12.5249 68.6561 12.468 68.2797 12.4183C67.9032 12.3686 67.5588 12.3438 67.2463 12.3438C66.5787 12.3438 65.9821 12.4893 65.4565 12.7805C64.938 13.0646 64.5261 13.4624 64.2207 13.9737C63.9224 14.4851 63.7733 15.0746 63.7733 15.7422V25H59.2349ZM78.142 25.3196C76.4872 25.3196 75.0561 24.968 73.8487 24.2649C72.6484 23.5547 71.7216 22.5675 71.0682 21.3033C70.4148 20.032 70.0881 18.5582 70.0881 16.8821C70.0881 15.1918 70.4148 13.7145 71.0682 12.4503C71.7216 11.179 72.6484 10.1918 73.8487 9.48864C75.0561 8.77841 76.4872 8.4233 78.142 8.4233C79.7969 8.4233 81.2244 8.77841 82.4247 9.48864C83.6321 10.1918 84.5625 11.179 85.2159 12.4503C85.8693 13.7145 86.196 15.1918 86.196 16.8821C86.196 18.5582 85.8693 20.032 85.2159 21.3033C84.5625 22.5675 83.6321 23.5547 82.4247 24.2649C81.2244 24.968 79.7969 25.3196 78.142 25.3196ZM78.1634 21.804C78.9162 21.804 79.5447 21.5909 80.049 21.1648C80.5533 20.7315 80.9332 20.142 81.1889 19.3963C81.4517 18.6506 81.5831 17.8018 81.5831 16.8501C81.5831 15.8984 81.4517 15.0497 81.1889 14.304C80.9332 13.5582 80.5533 12.9687 80.049 12.5355C79.5447 12.1023 78.9162 11.8857 78.1634 11.8857C77.4034 11.8857 76.7642 12.1023 76.2457 12.5355C75.7344 12.9687 75.3473 13.5582 75.0845 14.304C74.8288 15.0497 74.701 15.8984 74.701 16.8501C74.701 17.8018 74.8288 18.6506 75.0845 19.3963C75.3473 20.142 75.7344 20.7315 76.2457 21.1648C76.7642 21.5909 77.4034 21.804 78.1634 21.804ZM97.9467 8.63636V12.0455H87.8473V8.63636H97.9467ZM90.1591 25V7.45383C90.1591 6.26775 90.3899 5.28409 90.8516 4.50284C91.3203 3.72159 91.9595 3.13565 92.7692 2.74503C93.5788 2.3544 94.4986 2.15909 95.5284 2.15909C96.2244 2.15909 96.8601 2.21236 97.4354 2.31889C98.0178 2.42543 98.451 2.52131 98.7351 2.60653L97.9254 6.01562C97.7479 5.95881 97.5277 5.90554 97.2649 5.85582C97.0092 5.80611 96.7464 5.78125 96.4766 5.78125C95.8089 5.78125 95.3438 5.9375 95.081 6.25C94.8182 6.5554 94.6868 6.98509 94.6868 7.53906V25H90.1591ZM100.719 25V8.63636H105.258V25H100.719ZM102.999 6.52699C102.324 6.52699 101.746 6.30327 101.263 5.85582C100.787 5.40128 100.549 4.85795 100.549 4.22585C100.549 3.60085 100.787 3.06463 101.263 2.61719C101.746 2.16264 102.324 1.93537 102.999 1.93537C103.674 1.93537 104.249 2.16264 104.725 2.61719C105.208 3.06463 105.449 3.60085 105.449 4.22585C105.449 4.85795 105.208 5.40128 104.725 5.85582C104.249 6.30327 103.674 6.52699 102.999 6.52699ZM122.508 13.3026L118.353 13.5582C118.282 13.2031 118.13 12.8835 117.895 12.5994C117.661 12.3082 117.352 12.0774 116.968 11.907C116.592 11.7294 116.141 11.6406 115.615 11.6406C114.912 11.6406 114.319 11.7898 113.836 12.0881C113.353 12.3793 113.112 12.7699 113.112 13.2599C113.112 13.6506 113.268 13.9808 113.581 14.2507C113.893 14.5206 114.429 14.7372 115.189 14.9006L118.151 15.4972C119.742 15.8239 120.928 16.3494 121.709 17.0739C122.49 17.7983 122.881 18.75 122.881 19.929C122.881 21.0014 122.565 21.9425 121.933 22.7521C121.308 23.5618 120.449 24.1939 119.355 24.6484C118.268 25.0959 117.015 25.3196 115.594 25.3196C113.428 25.3196 111.702 24.8686 110.417 23.9666C109.138 23.0575 108.389 21.8217 108.169 20.2592L112.632 20.0249C112.767 20.6854 113.094 21.1896 113.613 21.5376C114.131 21.8786 114.795 22.049 115.605 22.049C116.4 22.049 117.039 21.8963 117.522 21.5909C118.012 21.2784 118.261 20.8771 118.268 20.3871C118.261 19.9751 118.087 19.6378 117.746 19.375C117.405 19.1051 116.88 18.8991 116.169 18.7571L113.336 18.1925C111.738 17.8729 110.548 17.3189 109.767 16.5305C108.993 15.7422 108.605 14.7372 108.605 13.5156C108.605 12.4645 108.89 11.5589 109.458 10.799C110.033 10.0391 110.839 9.45313 111.876 9.04119C112.92 8.62926 114.142 8.4233 115.541 8.4233C117.608 8.4233 119.234 8.86009 120.42 9.73366C121.613 10.6072 122.309 11.7969 122.508 13.3026ZM139.354 13.3026L135.199 13.5582C135.128 13.2031 134.975 12.8835 134.741 12.5994C134.507 12.3082 134.198 12.0774 133.814 11.907C133.438 11.7294 132.987 11.6406 132.461 11.6406C131.758 11.6406 131.165 11.7898 130.682 12.0881C130.199 12.3793 129.958 12.7699 129.958 13.2599C129.958 13.6506 130.114 13.9808 130.426 14.2507C130.739 14.5206 131.275 14.7372 132.035 14.9006L134.997 15.4972C136.588 15.8239 137.774 16.3494 138.555 17.0739C139.336 17.7983 139.727 18.75 139.727 19.929C139.727 21.0014 139.411 21.9425 138.779 22.7521C138.154 23.5618 137.294 24.1939 136.2 24.6484C135.114 25.0959 133.86 25.3196 132.44 25.3196C130.274 25.3196 128.548 24.8686 127.262 23.9666C125.984 23.0575 125.235 21.8217 125.014 20.2592L129.478 20.0249C129.613 20.6854 129.94 21.1896 130.458 21.5376C130.977 21.8786 131.641 22.049 132.45 22.049C133.246 22.049 133.885 21.8963 134.368 21.5909C134.858 21.2784 135.107 20.8771 135.114 20.3871C135.107 19.9751 134.933 19.6378 134.592 19.375C134.251 19.1051 133.725 18.8991 133.015 18.7571L130.181 18.1925C128.583 17.8729 127.394 17.3189 126.612 16.5305C125.838 15.7422 125.451 14.7372 125.451 13.5156C125.451 12.4645 125.735 11.5589 126.303 10.799C126.879 10.0391 127.685 9.45313 128.722 9.04119C129.766 8.62926 130.987 8.4233 132.387 8.4233C134.453 8.4233 136.08 8.86009 137.266 9.73366C138.459 10.6072 139.155 11.7969 139.354 13.3026ZM142.585 25V8.63636H147.123V25H142.585ZM144.864 6.52699C144.19 6.52699 143.611 6.30327 143.128 5.85582C142.652 5.40128 142.414 4.85795 142.414 4.22585C142.414 3.60085 142.652 3.06463 143.128 2.61719C143.611 2.16264 144.19 1.93537 144.864 1.93537C145.539 1.93537 146.114 2.16264 146.59 2.61719C147.073 3.06463 147.315 3.60085 147.315 4.22585C147.315 4.85795 147.073 5.40128 146.59 5.85582C146.114 6.30327 145.539 6.52699 144.864 6.52699ZM158.152 25.3196C156.497 25.3196 155.066 24.968 153.858 24.2649C152.658 23.5547 151.731 22.5675 151.078 21.3033C150.425 20.032 150.098 18.5582 150.098 16.8821C150.098 15.1918 150.425 13.7145 151.078 12.4503C151.731 11.179 152.658 10.1918 153.858 9.48864C155.066 8.77841 156.497 8.4233 158.152 8.4233C159.807 8.4233 161.234 8.77841 162.434 9.48864C163.642 10.1918 164.572 11.179 165.226 12.4503C165.879 13.7145 166.206 15.1918 166.206 16.8821C166.206 18.5582 165.879 20.032 165.226 21.3033C164.572 22.5675 163.642 23.5547 162.434 24.2649C161.234 24.968 159.807 25.3196 158.152 25.3196ZM158.173 21.804C158.926 21.804 159.555 21.5909 160.059 21.1648C160.563 20.7315 160.943 20.142 161.199 19.3963C161.461 18.6506 161.593 17.8018 161.593 16.8501C161.593 15.8984 161.461 15.0497 161.199 14.304C160.943 13.5582 160.563 12.9687 160.059 12.5355C159.555 12.1023 158.926 11.8857 158.173 11.8857C157.413 11.8857 156.774 12.1023 156.256 12.5355C155.744 12.9687 155.357 13.5582 155.094 14.304C154.839 15.0497 154.711 15.8984 154.711 16.8501C154.711 17.8018 154.839 18.6506 155.094 19.3963C155.357 20.142 155.744 20.7315 156.256 21.1648C156.774 21.5909 157.413 21.804 158.173 21.804ZM173.695 15.5398V25H169.157V8.63636H173.482V11.5234H173.674C174.036 10.5717 174.643 9.81889 175.496 9.26491C176.348 8.70384 177.381 8.4233 178.596 8.4233C179.732 8.4233 180.723 8.67187 181.568 9.16903C182.413 9.66619 183.07 10.3764 183.539 11.2997C184.008 12.2159 184.242 13.3097 184.242 14.581V25H179.704V15.3906C179.711 14.3892 179.455 13.608 178.937 13.0469C178.418 12.4787 177.704 12.1946 176.795 12.1946C176.184 12.1946 175.645 12.326 175.176 12.5888C174.714 12.8516 174.352 13.2351 174.089 13.7393C173.834 14.2365 173.702 14.8366 173.695 15.5398ZM192.485 25.3089C191.441 25.3089 190.511 25.1278 189.694 24.7656C188.877 24.3963 188.231 23.853 187.755 23.1357C187.286 22.4112 187.052 21.5092 187.052 20.4297C187.052 19.5206 187.219 18.7571 187.553 18.1392C187.886 17.5213 188.341 17.0241 188.916 16.6477C189.491 16.2713 190.145 15.9872 190.876 15.7955C191.615 15.6037 192.389 15.4688 193.199 15.3906C194.151 15.2912 194.918 15.1989 195.5 15.1136C196.082 15.0213 196.505 14.8864 196.768 14.7088C197.031 14.5312 197.162 14.2685 197.162 13.9205V13.8565C197.162 13.1818 196.949 12.6598 196.523 12.2905C196.104 11.9212 195.507 11.7365 194.733 11.7365C193.916 11.7365 193.266 11.9176 192.783 12.2798C192.3 12.6349 191.981 13.0824 191.825 13.6222L187.627 13.2812C187.84 12.2869 188.259 11.4276 188.884 10.7031C189.509 9.97159 190.315 9.41051 191.303 9.01989C192.297 8.62216 193.447 8.4233 194.754 8.4233C195.663 8.4233 196.533 8.52983 197.364 8.7429C198.202 8.95597 198.945 9.28622 199.591 9.73366C200.244 10.1811 200.759 10.7564 201.136 11.4595C201.512 12.1555 201.7 12.9901 201.7 13.9631V25H197.396V22.7308H197.268C197.006 23.2422 196.654 23.6932 196.214 24.0838C195.773 24.4673 195.244 24.7692 194.626 24.9893C194.009 25.2024 193.295 25.3089 192.485 25.3089ZM193.785 22.1768C194.452 22.1768 195.042 22.0455 195.553 21.7827C196.065 21.5128 196.466 21.1506 196.757 20.696C197.048 20.2415 197.194 19.7266 197.194 19.1513V17.4148C197.052 17.5071 196.857 17.5923 196.608 17.6705C196.366 17.7415 196.093 17.8089 195.788 17.8729C195.482 17.9297 195.177 17.983 194.871 18.0327C194.566 18.0753 194.289 18.1143 194.04 18.1499C193.508 18.228 193.043 18.3523 192.645 18.5227C192.247 18.6932 191.938 18.924 191.718 19.2152C191.498 19.4993 191.388 19.8544 191.388 20.2805C191.388 20.8984 191.612 21.3707 192.059 21.6974C192.513 22.017 193.089 22.1768 193.785 22.1768ZM205.221 25V8.63636H209.76V25H205.221ZM207.501 6.52699C206.826 6.52699 206.248 6.30327 205.765 5.85582C205.289 5.40128 205.051 4.85795 205.051 4.22585C205.051 3.60085 205.289 3.06463 205.765 2.61719C206.248 2.16264 206.826 1.93537 207.501 1.93537C208.176 1.93537 208.751 2.16264 209.227 2.61719C209.71 3.06463 209.951 3.60085 209.951 4.22585C209.951 4.85795 209.71 5.40128 209.227 5.85582C208.751 6.30327 208.176 6.52699 207.501 6.52699ZM227.01 13.3026L222.855 13.5582C222.784 13.2031 222.632 12.8835 222.397 12.5994C222.163 12.3082 221.854 12.0774 221.47 11.907C221.094 11.7294 220.643 11.6406 220.117 11.6406C219.414 11.6406 218.821 11.7898 218.338 12.0881C217.855 12.3793 217.614 12.7699 217.614 13.2599C217.614 13.6506 217.77 13.9808 218.083 14.2507C218.395 14.5206 218.931 14.7372 219.691 14.9006L222.653 15.4972C224.244 15.8239 225.43 16.3494 226.211 17.0739C226.992 17.7983 227.383 18.75 227.383 19.929C227.383 21.0014 227.067 21.9425 226.435 22.7521C225.81 23.5618 224.95 24.1939 223.857 24.6484C222.77 25.0959 221.517 25.3196 220.096 25.3196C217.93 25.3196 216.204 24.8686 214.919 23.9666C213.64 23.0575 212.891 21.8217 212.671 20.2592L217.134 20.0249C217.269 20.6854 217.596 21.1896 218.115 21.5376C218.633 21.8786 219.297 22.049 220.107 22.049C220.902 22.049 221.541 21.8963 222.024 21.5909C222.514 21.2784 222.763 20.8771 222.77 20.3871C222.763 19.9751 222.589 19.6378 222.248 19.375C221.907 19.1051 221.382 18.8991 220.671 18.7571L217.838 18.1925C216.24 17.8729 215.05 17.3189 214.269 16.5305C213.494 15.7422 213.107 14.7372 213.107 13.5156C213.107 12.4645 213.392 11.5589 213.96 10.799C214.535 10.0391 215.341 9.45313 216.378 9.04119C217.422 8.62926 218.644 8.4233 220.043 8.4233C222.11 8.4233 223.736 8.86009 224.922 9.73366C226.115 10.6072 226.811 11.7969 227.01 13.3026Z" fill="#FFEEEE"/>
<path d="M6.74559 27.7456C6.66431 27.8271 6.56775 27.8917 6.46145 27.9359C6.35515 27.98 6.24119 28.0027 6.12609 28.0027C6.011 28.0027 5.89704 27.98 5.79073 27.9359C5.68443 27.8917 5.58787 27.8271 5.50659 27.7456L0.256592 22.4956C0.0922907 22.3313 -1.24023e-05 22.1085 -1.23978e-05 21.8761C-1.23932e-05 21.6437 0.0922907 21.4209 0.256592 21.2566C0.420894 21.0923 0.643735 21 0.876092 21C1.10845 21 1.33129 21.0923 1.49559 21.2566L2.18859 21.9514L5.32634 18.8136L2.00659 15.4956C1.84229 15.3313 1.74999 15.1085 1.74999 14.8761C1.74999 14.6437 1.84229 14.4209 2.00659 14.2566C2.17089 14.0923 2.39373 14 2.62609 14C2.85845 14 3.08129 14.0923 3.24559 14.2566L5.25109 16.2639L14.9811 6.53386C15.3875 6.1271 15.8701 5.80444 16.4013 5.58434C16.9325 5.36424 17.5019 5.251 18.0768 5.25111H21.5138L26.5066 0.256606C26.6709 0.0923047 26.8937 -3.46239e-09 27.1261 0C27.3584 3.4624e-09 27.5813 0.0923047 27.7456 0.256606C27.9099 0.420908 28.0022 0.643749 28.0022 0.876107C28.0022 1.10846 27.9099 1.33131 27.7456 1.49561L22.7511 6.48836V9.92711C22.7508 11.0869 22.2901 12.1991 21.4701 13.0194L11.7401 22.7511L13.7456 24.7566C13.9099 24.9209 14.0022 25.1437 14.0022 25.3761C14.0022 25.6085 13.9099 25.8313 13.7456 25.9956C13.5813 26.1599 13.3585 26.2522 13.1261 26.2522C12.8937 26.2522 12.6709 26.1599 12.5066 25.9956L9.18859 22.6759L6.05084 25.8136L6.74559 26.5066C6.82708 26.5879 6.89173 26.6844 6.93584 26.7907C6.97995 26.8971 7.00266 27.011 7.00266 27.1261C7.00266 27.2412 6.97995 27.3552 6.93584 27.4615C6.89173 27.5678 6.82708 27.6643 6.74559 27.7456V27.7456ZM14.0011 18.0139L15.3888 16.6261L14.2566 15.4956C14.0923 15.3313 14 15.1085 14 14.8761C14 14.6437 14.0923 14.4209 14.2566 14.2566C14.4209 14.0923 14.6437 14 14.8761 14C15.1085 14 15.3313 14.0923 15.4956 14.2566L16.6261 15.3889L18.0138 14.0011L16.8816 12.8706C16.7173 12.7063 16.625 12.4835 16.625 12.2511C16.625 12.0187 16.7173 11.7959 16.8816 11.6316C17.0459 11.4673 17.2687 11.375 17.5011 11.375C17.7335 11.375 17.9563 11.4673 18.1206 11.6316L19.2511 12.7639L20.2311 11.7839C20.4753 11.5399 20.6691 11.2502 20.8012 10.9313C20.9333 10.6124 21.0012 10.2706 21.0011 9.92536V7.00111H18.0751C17.3791 7.00172 16.7119 7.27868 16.2201 7.77111L6.49009 17.5011L10.5011 21.5139L12.7638 19.2511L11.6316 18.1206C11.4673 17.9563 11.375 17.7335 11.375 17.5011C11.375 17.2687 11.4673 17.0459 11.6316 16.8816C11.7959 16.7173 12.0187 16.625 12.2511 16.625C12.4835 16.625 12.7063 16.7173 12.8706 16.8816L14.0011 18.0139ZM3.42584 23.1886L4.81359 24.5764L7.95134 21.4386L6.56359 20.0509L3.42584 23.1886Z" fill="#FFEEEE"/>
</svg>
